HIERARCHY
ROOT joint_Root
{
	OFFSET 0.0 0.0 0.0
	CHANNELS 6 Xposition Yposition Zposition Zrotation Xrotation Yrotation 
	JOINT Hips
	{
		OFFSET -17.1583 93.1646 452.98
		CHANNELS 6 Xposition Yposition Zposition Zrotation Xrotation Yrotation 
		JOINT Spine
		{
			OFFSET 15.7357 0.0 0.0
			CHANNELS 6 Xposition Yposition Zposition Zrotation Xrotation Yrotation 
			JOINT Chest
			{
				OFFSET 8.98455 -0.406207 0.0
				CHANNELS 6 Xposition Yposition Zposition Zrotation Xrotation Yrotation 
				JOINT Neck
				{
					OFFSET 16.3773 0.0 0.0
					CHANNELS 6 Xposition Yposition Zposition Zrotation Xrotation Yrotation 
					JOINT Head
					{
						OFFSET 6.45672 0.0 0.0
						CHANNELS 6 Xposition Yposition Zposition Zrotation Xrotation Yrotation 
						End Site
						{
							OFFSET 0.0 0.0 0.0
						}
					}
				}
				JOINT Shoulder_L
				{
					OFFSET 12.9942 -0.242716 4.98039
					CHANNELS 6 Xposition Yposition Zposition Zrotation Xrotation Yrotation 
					JOINT UpperArm_L
					{
						OFFSET 5.34809 0.0 0.0
						CHANNELS 6 Xposition Yposition Zposition Zrotation Xrotation Yrotation 
						JOINT LowerArm_L
						{
							OFFSET 24.3286 1.87007e-05 0.0
							CHANNELS 6 Xposition Yposition Zposition Zrotation Xrotation Yrotation 
							JOINT Hand_L
							{
								OFFSET 22.2916 0.0 0.0
								CHANNELS 6 Xposition Yposition Zposition Zrotation Xrotation Yrotation 
								End Site
								{
									OFFSET 0.0 0.0 0.0
								}
							}
						}
					}
				}
				JOINT Shoulder_R
				{
					OFFSET 12.9945 -0.242716 -4.98039
					CHANNELS 6 Xposition Yposition Zposition Zrotation Xrotation Yrotation 
					JOINT UpperArm_R
					{
						OFFSET -5.34813 0.0 0.0
						CHANNELS 6 Xposition Yposition Zposition Zrotation Xrotation Yrotation 
						JOINT LowerArm_R
						{
							OFFSET -24.3289 0.000322201 0.0
							CHANNELS 6 Xposition Yposition Zposition Zrotation Xrotation Yrotation 
							JOINT Hand_R
							{
								OFFSET -22.2915 -0.000108084 0.0
								CHANNELS 6 Xposition Yposition Zposition Zrotation Xrotation Yrotation 
								End Site
								{
									OFFSET 0.0 0.0 0.0
								}
							}
						}
					}
				}
			}
		}
		JOINT UpperLeg_L
		{
			OFFSET -2.19248 -6.46944 0.0
			CHANNELS 6 Xposition Yposition Zposition Zrotation Xrotation Yrotation 
			JOINT LowerLeg_L
			{
				OFFSET 39.0811 0.0 -1.23785e-05
				CHANNELS 6 Xposition Yposition Zposition Zrotation Xrotation Yrotation 
				JOINT Foot_L
				{
					OFFSET 40.9854 0.0 -1.26872e-05
					CHANNELS 6 Xposition Yposition Zposition Zrotation Xrotation Yrotation 
					JOINT Toes_L
					{
						OFFSET 11.7543 0.0 0.0
						CHANNELS 6 Xposition Yposition Zposition Zrotation Xrotation Yrotation 
						End Site
						{
							OFFSET 0.0 0.0 0.0
						}
					}
				}
			}
		}
		JOINT UpperLeg_R
		{
			OFFSET -2.19251 6.46944 0.0
			CHANNELS 6 Xposition Yposition Zposition Zrotation Xrotation Yrotation 
			JOINT LowerLeg_R
			{
				OFFSET -39.0811 -0.00228153 -0.0401928
				CHANNELS 6 Xposition Yposition Zposition Zrotation Xrotation Yrotation 
				JOINT Foot_R
				{
					OFFSET -40.9854 0.0 0.0
					CHANNELS 6 Xposition Yposition Zposition Zrotation Xrotation Yrotation 
					JOINT Toes_R
					{
						OFFSET -11.7543 0.0 0.0
						CHANNELS 6 Xposition Yposition Zposition Zrotation Xrotation Yrotation 
						End Site
						{
							OFFSET 0.0 0.0 0.0
						}
					}
				}
			}
		}
	}
}
MOTION
Frames:	8
Frame Time:	0.0333333
0.000000 0.000000 0.000000 0.000000 0.000000 -0.000000 -0.002462 92.747700 2.366140 86.791800 -3.158100 3.769700 15.735700 0.000005 -0.000001 85.356000 86.807800 -92.594000 8.984550 -0.406207 -0.000000 -1.357630 0.057464 -14.470500 16.377300 -0.000001 -0.000001 5.013260 -2.716090 -7.674580 6.456720 -0.000001 -0.000000 -4.141810 0.122621 -15.143200 12.994200 -0.242716 4.980390 -91.986700 6.328430 -72.531300 5.348090 -0.000007 -0.000001 -58.655000 6.471430 1.659720 24.328600 0.000019 0.000005 12.929600 27.729800 -26.261100 22.291600 -0.000001 0.000005 2.318560 4.758710 12.088100 12.994500 -0.242716 -4.980390 94.730900 -8.531440 -60.845000 -5.348130 -0.000001 -0.000004 -30.420800 -59.193500 -69.173600 -24.328900 0.000322 -0.000009 -0.061347 -0.873090 -3.951650 -22.291500 -0.000108 -0.000004 51.736600 5.526230 -7.630590 -2.192480 -6.469440 -0.000000 -173.054000 -7.606330 2.784530 39.081100 -0.000007 -0.000012 0.037477 -0.115387 17.993500 40.985400 -0.000006 -0.000013 -0.047454 8.545350 -70.512400 11.754300 -0.000000 0.000003 -0.002855 0.206576 -8.194670 -2.192510 6.469440 -0.000001 176.343000 7.527010 -174.471000 -39.081100 -0.002282 -0.040193 -0.016735 0.101560 11.179800 -40.985400 0.000008 0.000006 -10.238700 10.773600 -65.864300 -11.754300 -0.000006 -0.000006 -0.010252 0.273180 -5.474290
0.000000 0.000000 0.000000 0.000000 0.000000 -0.000000 -0.030671 92.753300 2.372730 86.796800 -3.028260 3.698070 15.735700 0.000005 -0.000001 84.991800 86.814700 -92.204100 8.984550 -0.406207 -0.000000 -1.377780 0.017510 -14.419500 16.377300 -0.000001 -0.000001 5.052570 -2.685740 -7.691830 6.456720 -0.000001 -0.000000 -4.154090 0.158278 -15.156100 12.994200 -0.242716 4.980390 -92.007700 6.366670 -72.457100 5.348090 -0.000007 -0.000001 -58.645700 6.438780 1.862380 24.328600 0.000019 0.000005 12.992900 27.582100 -26.488500 22.291600 -0.000001 0.000005 2.340240 4.760780 12.049900 12.994500 -0.242716 -4.980390 94.726400 -8.526800 -60.855000 -5.348130 -0.000001 -0.000004 -30.502300 -59.085200 -69.194000 -24.328900 0.000322 -0.000009 -0.058656 -0.830078 -3.970880 -22.291500 -0.000108 -0.000004 51.710700 5.524230 -7.543990 -2.192480 -6.469440 -0.000000 -173.053000 -7.515900 2.710500 39.081100 -0.000007 -0.000012 0.038335 -0.118241 17.963500 40.985400 -0.000006 -0.000013 -0.059663 8.611130 -70.560000 11.754300 -0.000000 0.000003 -0.002934 0.207489 -8.157520 -2.192510 6.469440 -0.000001 176.368000 7.601850 -174.513000 -39.081100 -0.002282 -0.040193 -0.016565 0.100938 11.154100 -40.985400 0.000008 0.000006 -10.229300 10.719600 -65.860700 -11.754300 -0.000006 -0.000006 -0.010301 0.273543 -5.459430
0.000000 0.000000 0.000000 0.000000 0.000000 -0.000000 -0.053970 92.755600 2.379290 86.799100 -2.953850 3.672590 15.735700 0.000005 -0.000001 85.234000 86.803800 -92.428200 8.984550 -0.406207 -0.000000 -1.352580 0.039510 -14.383100 16.377300 -0.000001 -0.000001 5.034680 -2.671530 -7.692990 6.456720 -0.000001 -0.000000 -4.125520 0.170430 -15.163100 12.994200 -0.242716 4.980390 -92.009000 6.383980 -72.491100 5.348090 -0.000007 -0.000001 -58.674100 6.413710 2.006020 24.328600 0.000019 0.000005 13.062300 27.471400 -26.700000 22.291600 -0.000001 0.000005 2.214700 4.763130 12.006200 12.994500 -0.242716 -4.980390 94.726500 -8.519630 -60.834300 -5.348130 -0.000001 -0.000004 -30.531400 -58.994000 -69.199600 -24.328900 0.000322 -0.000009 -0.063195 -0.916173 -3.881370 -22.291500 -0.000108 -0.000004 51.480000 5.524870 -7.571580 -2.192480 -6.469440 -0.000000 -173.034000 -7.483990 2.699230 39.081100 -0.000007 -0.000012 0.038017 -0.117513 17.927300 40.985400 -0.000006 -0.000013 -0.084964 8.627610 -70.547700 11.754300 -0.000000 0.000003 -0.003016 0.208413 -8.119930 -2.192510 6.469440 -0.000001 176.389000 7.591510 -174.520000 -39.081100 -0.002282 -0.040193 -0.016484 0.100617 11.144200 -40.985400 0.000008 0.000006 -10.264400 10.659700 -65.881000 -11.754300 -0.000006 -0.000006 -0.010402 0.274287 -5.429030
0.000000 0.000000 0.000000 0.000000 0.000000 -0.000000 -0.080875 92.753700 2.380840 86.799800 -2.872790 3.638740 15.735700 0.000005 -0.000001 85.207700 86.797800 -92.392700 8.984550 -0.406207 -0.000000 -1.341200 0.034134 -14.364800 16.377300 -0.000001 -0.000001 5.002270 -2.650160 -7.653850 6.456720 -0.000001 -0.000000 -4.086490 0.223718 -15.191100 12.994200 -0.242716 4.980390 -92.011000 6.389020 -72.487400 5.348090 -0.000007 -0.000001 -58.741300 6.454290 2.064560 24.328600 0.000019 0.000005 13.109400 27.377400 -26.858700 22.291600 -0.000001 0.000005 2.209780 4.762460 12.018700 12.994500 -0.242716 -4.980390 94.708500 -8.495580 -60.859100 -5.348130 -0.000001 -0.000004 -30.484900 -58.905800 -69.146800 -24.328900 0.000322 -0.000009 -0.063784 -0.941047 -3.814920 -22.291500 -0.000108 -0.000004 51.436200 5.522550 -7.471750 -2.192480 -6.469440 -0.000000 -173.023000 -7.467860 2.627650 39.081100 -0.000007 -0.000012 0.037754 -0.116518 17.953500 40.985400 -0.000006 -0.000013 -0.092264 8.667840 -70.512800 11.754300 -0.000000 0.000003 -0.002822 0.206201 -8.209960 -2.192510 6.469440 -0.000001 176.418000 7.641290 -174.553000 -39.081100 -0.002282 -0.040193 -0.016383 0.099956 11.160000 -40.985400 0.000008 0.000006 -10.195800 10.601400 -65.897500 -11.754300 -0.000006 -0.000006 -0.010378 0.274107 -5.436370
0.000000 0.000000 0.000000 0.000000 0.000000 -0.000000 -0.096463 92.765400 2.380150 86.824900 -2.867030 3.608070 15.735700 0.000005 -0.000001 85.342800 86.792400 -92.518800 8.984550 -0.406207 -0.000000 -1.328570 0.046817 -14.346700 16.377300 -0.000001 -0.000001 4.989070 -2.600560 -7.724990 6.456720 -0.000001 -0.000000 -4.175040 0.286875 -15.173000 12.994200 -0.242716 4.980390 -92.027100 6.419240 -72.433600 5.348090 -0.000007 -0.000001 -58.842300 6.468150 2.030770 24.328600 0.000019 0.000005 13.142100 27.320100 -26.963200 22.291600 -0.000001 0.000005 2.127570 4.760540 12.054200 12.994500 -0.242716 -4.980390 94.694100 -8.470210 -60.861700 -5.348130 -0.000001 -0.000004 -30.642300 -58.871600 -69.302500 -24.328900 0.000322 -0.000009 -0.076568 -1.141130 -3.787110 -22.291500 -0.000108 -0.000004 51.221400 5.529400 -7.769070 -2.192480 -6.469440 -0.000000 -173.041000 -7.414560 2.670380 39.081100 -0.000007 -0.000012 0.036675 -0.114103 17.818600 40.985400 -0.000006 -0.000013 -0.125725 8.638970 -70.500300 11.754300 -0.000000 0.000003 -0.003092 0.209268 -8.085140 -2.192510 6.469440 -0.000001 176.400000 7.656890 -174.557000 -39.081100 -0.002282 -0.040193 -0.016199 0.099352 11.124600 -40.985400 0.000008 0.000006 -10.253100 10.619900 -65.920200 -11.754300 -0.000006 -0.000006 -0.010609 0.275798 -5.367190
0.000000 0.000000 0.000000 0.000000 0.000000 -0.000000 -0.128179 92.765500 2.368490 86.785900 -2.860510 3.513460 15.735700 0.000005 -0.000001 85.385800 86.805400 -92.532700 8.984550 -0.406207 -0.000000 -1.354090 0.053002 -14.288400 16.377300 -0.000001 -0.000001 4.970390 -2.566050 -7.821510 6.456720 -0.000001 -0.000000 -4.253740 0.296309 -15.129200 12.994200 -0.242716 4.980390 -92.038600 6.465230 -72.457400 5.348090 -0.000007 -0.000001 -58.964000 6.474530 2.022890 24.328600 0.000019 0.000005 13.250500 27.395700 -27.101500 22.291600 -0.000001 0.000005 2.235600 4.762840 12.011600 12.994500 -0.242716 -4.980390 94.692500 -8.468440 -60.864900 -5.348130 -0.000001 -0.000004 -30.664600 -58.826800 -69.332300 -24.328900 0.000322 -0.000009 -0.079767 -1.190360 -3.784230 -22.291500 -0.000108 -0.000004 51.162100 5.527630 -7.691200 -2.192480 -6.469440 -0.000000 -173.002000 -7.371570 2.535370 39.081100 -0.000007 -0.000012 0.037569 -0.116537 17.868200 40.985400 -0.000006 -0.000013 -0.138022 8.651460 -70.498400 11.754300 -0.000000 0.000003 -0.002928 0.207421 -8.160310 -2.192510 6.469440 -0.000001 176.484000 7.652580 -174.652000 -39.081100 -0.002282 -0.040193 -0.015920 0.098267 11.087700 -40.985400 0.000008 0.000006 -10.193300 10.582500 -65.874000 -11.754300 -0.000006 -0.000006 -0.010548 0.275352 -5.385420
0.000000 0.000000 0.000000 0.000000 0.000000 -0.000000 -0.150697 92.778800 2.342880 86.796200 -2.825460 3.457260 15.735700 0.000005 -0.000001 85.109000 86.802600 -92.241900 8.984550 -0.406207 -0.000000 -1.353130 0.020602 -14.260600 16.377300 -0.000001 -0.000001 4.900610 -2.555440 -7.856950 6.456720 -0.000001 -0.000000 -4.350230 0.360108 -15.145200 12.994200 -0.242716 4.980390 -92.051100 6.505950 -72.459100 5.348090 -0.000007 -0.000001 -59.132300 6.462120 1.985310 24.328600 0.000019 0.000005 13.245700 27.249500 -27.207700 22.291600 -0.000001 0.000005 2.351340 4.765200 11.967900 12.994500 -0.242716 -4.980390 94.681800 -8.436790 -60.830300 -5.348130 -0.000001 -0.000004 -31.006100 -58.841100 -69.689400 -24.328900 0.000322 -0.000009 -0.087986 -1.294600 -3.842730 -22.291500 -0.000108 -0.000004 50.887300 5.528910 -7.747710 -2.192480 -6.469440 -0.000000 -173.002000 -7.373780 2.517700 39.081100 -0.000007 -0.000012 0.037009 -0.115514 17.764800 40.985400 -0.000006 -0.000013 -0.163514 8.662790 -70.477100 11.754300 -0.000000 0.000003 -0.002878 0.206847 -8.183640 -2.192510 6.469440 -0.000001 176.505000 7.659490 -174.702000 -39.081100 -0.002282 -0.040193 -0.015609 0.097039 11.047500 -40.985400 0.000008 0.000006 -10.122500 10.560000 -65.834000 -11.754300 -0.000006 -0.000006 -0.010285 0.273422 -5.464410
0.000000 0.000000 0.000000 0.000000 0.000000 -0.000000 -0.172656 92.779400 2.328200 86.779000 -2.866400 3.397800 15.735700 0.000005 -0.000001 85.227300 86.799900 -92.338700 8.984550 -0.406207 -0.000000 -1.346290 0.031191 -14.217800 16.377300 -0.000001 -0.000001 4.841010 -2.528370 -7.943980 6.456720 -0.000001 -0.000000 -4.405300 0.373084 -15.040400 12.994200 -0.242716 4.980390 -92.054200 6.522430 -72.476100 5.348090 -0.000007 -0.000001 -59.333000 6.491390 1.864650 24.328600 0.000019 0.000005 13.301900 27.260800 -27.301200 22.291600 -0.000001 0.000005 2.172560 4.762770 12.012900 12.994500 -0.242716 -4.980390 94.659600 -8.419100 -60.896200 -5.348130 -0.000001 -0.000004 -30.837600 -58.851300 -69.491600 -24.328900 0.000322 -0.000009 -0.094759 -1.346400 -3.982210 -22.291500 -0.000108 -0.000004 50.826500 5.525960 -7.618830 -2.192480 -6.469440 -0.000000 -172.946000 -7.526730 2.449760 39.081100 -0.000007 -0.000012 0.034764 -0.108480 17.769000 40.985400 -0.000006 -0.000013 -0.165182 8.776840 -70.409600 11.754300 -0.000000 0.000003 -0.002748 0.205347 -8.244690 -2.192510 6.469440 -0.000001 176.557000 7.609080 -174.756000 -39.081100 -0.002282 -0.040193 -0.015333 0.095958 11.009900 -40.985400 0.000008 0.000006 -10.157100 10.510600 -65.833300 -11.754300 -0.000006 -0.000006 -0.010468 0.274769 -5.409280
